<?xml version="1.0" encoding="UTF-8"?><svg id="Layer_1" xmlns="http://www.w3.org/2000/svg" viewBox="0 0 400 400"><defs><style>.cls-1{fill:#0166ff;}</style></defs><path class="cls-1" d="M245.22,216.87v-33.74c0-5.71-3.05-11-8-13.85l-29.22-16.87c-4.95-2.86-11.05-2.86-16,0l-29.22,16.87c-4.95,2.86-8,8.14-8,13.85v33.74c0,5.71,3.05,11,8,13.85l29.22,16.87c4.95,2.86,11.05,2.86,16,0l29.22-16.87c4.95-2.86,8-8.14,8-13.85Z"/><path class="cls-1" d="M258.4,263.32l-49.17,28.39c-5.71,3.3-12.75,3.3-18.46,0l-65.58-37.86c-5.71-3.3-9.23-9.39-9.23-15.98v-75.73c0-6.59,3.52-12.69,9.23-15.98l65.58-37.86c5.71-3.3,12.75-3.3,18.46,0l65.58,37.86c5.71,3.3,9.23,9.39,9.23,15.98v56.45c0,3.96,2.11,7.61,5.54,9.59l27.57,15.91c3.28,1.89,7.38-.47,7.38-4.26v-86.14c0-15.83-8.44-30.45-22.15-38.36l-80.23-46.32c-13.71-7.91-30.59-7.91-44.3,0l-80.23,46.32c-13.71,7.91-22.15,22.54-22.15,38.36v92.64c0,15.83,8.44,30.45,22.15,38.36l80.23,46.32c13.71,7.91,30.59,7.91,44.3,0l74.9-43.24c3.28-1.89,3.28-6.63,0-8.53l-27.58-15.91c-3.43-1.98-7.65-1.98-11.07,0Z"/></svg>